<svg xmlns="http://www.w3.org/2000/svg" viewBox="0 0 100 100">
  <defs>
    <style>
      .a {
        fill: none;
        stroke: #04c7d7;
        stroke-miterlimit: 10;
      }

      .b {
        fill: #3d4c6d;
      }

      .c {
        fill: #fc4f80;
      }
    </style>
  </defs>
  <title>Our services_icons</title>
  <g>
    <circle class="a" cx="50" cy="50" r="45"/>
    <path class="b" d="M58.48,58.62a4.58,4.58,0,0,0-6.48,0l-.71.71A85.92,85.92,0,0,1,40.68,48.71l.71-.71a4.59,4.59,0,0,0,0-6.48l-3.89-3.89a4.58,4.58,0,0,0-6.48,0l-2.13,2.13a6.44,6.44,0,0,0-.81,8.07A86.05,86.05,0,0,0,52.16,71.93a6.42,6.42,0,0,0,8.07-.81L62.37,69a4.59,4.59,0,0,0,0-6.48Z"/>
    <path class="c" d="M49,29a.92.92,0,0,0,0,1.83A20.19,20.19,0,0,1,69.17,51,.92.92,0,1,0,71,51,22,22,0,0,0,49,29"/>
    <path class="c" d="M49,38.17A12.85,12.85,0,0,1,61.83,51a.92.92,0,0,0,1.83,0A14.68,14.68,0,0,0,49,36.34a.92.92,0,0,0,0,1.83"/>
    <path class="c" d="M49,45.5A5.51,5.51,0,0,1,54.5,51a.92.92,0,1,0,1.83,0A7.34,7.34,0,0,0,49,43.67a.92.92,0,0,0,0,1.83"/>
  </g>
</svg>
