<svg xmlns="http://www.w3.org/2000/svg" width="48.15384615384613" height="62.46153846153848" style=""><rect id="backgroundrect" width="100%" height="100%" x="0" y="0" fill="none" stroke="none" class="" style=""/>
  <defs>
    <style>
      .a {
        fill: #3d4c6d;
      }
    </style>
  </defs>
  <title>Our services_icons</title>
  
<g class="currentLayer" style=""><title>Layer 1</title><path class="a" d="M25.03875981092453,11.237639596462248 a6.7,6.7 0 0 0 2.17,9.22 l1.24,0.77 A125.54,125.54 0 0 1 16.89875981092453,39.86763959646224 l-1.24,-0.77 a6.7,6.7 0 0 0 -9.22,2.17 L2.2187598109245315,48.097639596462244 a6.7,6.7 0 0 0 2.17,9.22 L8.11875981092453,59.63763959646225 a9.41,9.41 0 0 0 11.76,-1.55 A125.72,125.72 0 0 0 46.11875981092453,15.74763959646225 a9.37,9.37 0 0 0 -3.85,-11.21 l-3.75,-2.3200000000000003 a6.7,6.7 0 0 0 -9.22,2.17 z" id="svg_1"/></g></svg>