<svg xmlns="http://www.w3.org/2000/svg" viewBox="0 0 100 100">
  <defs>
    <style>
      .a {
        fill: none;
        stroke: #04c7d7;
        stroke-miterlimit: 10;
      }

      .b {
        fill: #3d4c6d;
      }

      .c {
        fill: #fc4f80;
      }
    </style>
  </defs>
  <title>Our services_icons</title>
  <g>
    <circle class="a" cx="50" cy="50" r="45"/>
    <path class="b" d="M57.46,51.35c-.93-.34-1.94-.67-3-1s-2.32-.77-3.45-1.18V45.73a6.61,6.61,0,0,0,2.73-5.38,2.94,2.94,0,0,0,1.09-2.55A3.16,3.16,0,0,0,54,35.43a8.49,8.49,0,0,0,.67-5.12C54,27.87,50.57,27,47.79,27h0c-2.46,0-5.46.68-6.53,2.54a2.63,2.63,0,0,0-2.2.76c-1.22,1.33-.55,3.81-.14,5.21a2.14,2.14,0,0,0-.54.68A3.7,3.7,0,0,0,38,37.87a2.85,2.85,0,0,0,1.1,2.5,6.61,6.61,0,0,0,2.73,5.37v3.42c-1.13.42-2.31.8-3.45,1.18C34.07,51.75,30.67,52.88,30,55a32.74,32.74,0,0,0-1,7.74.92.92,0,0,0,.92.93H53.59a9.66,9.66,0,0,1-1.67-4.94,7.3,7.3,0,0,1,5.55-7.37"/>
    <path class="c" d="M67.77,53a4.51,4.51,0,0,0-.55,0l-.13,0-.43.08-.16,0-.4.13-.16.07-.43.2-.11.06a5.56,5.56,0,0,0-2,2.06,6.22,6.22,0,0,0-.53-.76l-.06-.14a.77.77,0,0,1-.1-.07A5,5,0,0,0,59,53a5.43,5.43,0,0,0-5.23,5.73c0,2.79,2.67,6.12,5.44,8.73l.09.09.5.46.48.42.11.09c.86.74,1.58,1.31,2,1.66l.41.31h0a.92.92,0,0,0,1.08,0h0l.41-.31c.46-.35,1.18-.91,2-1.66l.11-.09L67,68l.5-.46.09-.09c2.24-2.11,4.41-4.69,5.16-7.08,0-.1.06-.2.08-.3s.09-.34.12-.5a5.17,5.17,0,0,0,.08-.85A5.43,5.43,0,0,0,67.77,53"/>
  </g>
</svg>
