<svg xmlns="http://www.w3.org/2000/svg" viewBox="0 0 100 100">
  <defs>
    <style>
      .a {
        fill: none;
        stroke: #04c7d7;
        stroke-miterlimit: 10;
      }

      .b {
        fill: #fc4f80;
      }

      .c {
        fill: #3d4c6d;
      }
    </style>
  </defs>
  <title>Our services_icons</title>
  <g>
    <circle class="a" cx="50" cy="50" r="45"/>
    <path class="b" d="M49.25,66.83a4.58,4.58,0,1,0,4.58,4.58,4.59,4.59,0,0,0-4.58-4.58"/>
    <path class="b" d="M44.67,51.25a4.58,4.58,0,1,0,4.58-4.58,4.59,4.59,0,0,0-4.58,4.58"/>
    <path class="b" d="M42.83,52.17a4.58,4.58,0,1,0-4.58,4.58,4.59,4.59,0,0,0,4.58-4.58"/>
    <path class="b" d="M60.25,47.58a4.58,4.58,0,1,0,4.58,4.58,4.59,4.59,0,0,0-4.58-4.58"/>
    <path class="b" d="M54.75,57.67a4.58,4.58,0,1,0,4.58,4.58,4.59,4.59,0,0,0-4.58-4.58"/>
    <path class="b" d="M48.33,62.25a4.58,4.58,0,1,0-4.58,4.58,4.59,4.59,0,0,0,4.58-4.58"/>
    <path class="c" d="M49.25,44.83a.92.92,0,0,0,.92-.92v-11a.92.92,0,1,0-1.83,0v11a.92.92,0,0,0,.92.92"/>
    <path class="c" d="M68.35,34.26a.91.91,0,0,0-.58-.4,15,15,0,0,0-3.21-.36A12.52,12.52,0,0,0,52,43.72a.92.92,0,0,0,.7,1.09,15,15,0,0,0,3.21.35h0A12.52,12.52,0,0,0,68.48,34.95a.92.92,0,0,0-.12-.69"/>
    <path class="c" d="M42.56,45.17a15,15,0,0,0,3.21-.36.92.92,0,0,0,.7-1.09A12.52,12.52,0,0,0,33.94,33.5a15,15,0,0,0-3.21.36.92.92,0,0,0-.7,1.09A12.52,12.52,0,0,0,42.56,45.17"/>
  </g>
</svg>
