<svg xmlns="http://www.w3.org/2000/svg" viewBox="0 0 250 250">
  <defs>
    <style>
      .a {
        fill: #39bbcf;
      }

      .a, .d {
        stroke: #3e4d6e;
        stroke-miterlimit: 10;
        stroke-width: 5px;
      }

      .b, .d {
        fill: #fafafa;
      }

      .c {
        fill: #3e4d6e;
      }

      .e {
        fill: #ea5181;
      }
    </style>
  </defs>
  <title>illustration</title>
  <g>
    <path class="a" d="M192.53,42.57H160.26V53.08H83V42.57H51.67a8.53,8.53,0,0,0-8.5,8.5V222.62a8.53,8.53,0,0,0,8.5,8.5H192.53a8.53,8.53,0,0,0,8.5-8.5V51.07A8.53,8.53,0,0,0,192.53,42.57Z"/>
    <g>
      <rect class="b" x="65.36" y="63.09" width="113.47" height="150.33"/>
      <path class="c" d="M176.33,65.59V210.92H67.86V65.59H176.33m5-5H62.86V215.92H181.33V60.59Z"/>
    </g>
    <path class="d" d="M152.21,27.82H138.53a16.72,16.72,0,0,0,.1-1.79,16.53,16.53,0,1,0-33,1.79H92a8.53,8.53,0,0,0-8.5,8.5V53.08h77.23V36.33A8.53,8.53,0,0,0,152.21,27.82Z"/>
    <circle class="c" cx="122.1" cy="26.04" r="6.25"/>
    <g>
      <path class="c" d="M101.43,121.72v8h7.91v-8h5.12v19.6h-5.12V133.8h-7.91v7.52H96.31v-19.6Z"/>
      <path class="c" d="M133.56,133.74c0,4.67-3.3,7.75-8.28,7.75s-8.25-3.08-8.25-7.75,3.27-7.72,8.25-7.72S133.56,129.1,133.56,133.74ZM122,133.8c0,2.26,1.32,3.77,3.24,3.77s3.27-1.51,3.27-3.77-1.32-3.75-3.27-3.75S122,131.56,122,133.8Z"/>
      <path class="c" d="M141.22,120.57v20.75h-5V120.57Z"/>
      <path class="c" d="M158.62,131.48v9.84h-4.89v-1.71a5.46,5.46,0,0,1-4.56,1.93c-3.24,0-5.17-2-5.17-4.73s2-4.53,5.79-4.59h3.94v-.17c0-1.43-1-2.27-2.88-2.27a11.08,11.08,0,0,0-4.53,1.2l-1.37-3.36a16.66,16.66,0,0,1,7-1.65C156.16,126,158.59,128,158.62,131.48Zm-4.89,4.73v-1.31h-3c-1.4,0-2.1.5-2.1,1.57s.76,1.71,2,1.71A3,3,0,0,0,153.72,136.21Z"/>
      <path class="c" d="M166.17,139.11a2.39,2.39,0,1,1-4.78,0,2.39,2.39,0,1,1,4.78,0Zm.06-17.28v5l-.87,7.69h-3l-.87-7.69v-5Z"/>
    </g>
    <g>
      <path class="c" d="M100.84,85.76v7.07h7V85.76h4.53V103.1h-4.53V96.44h-7v6.65H96.31V85.76Z"/>
      <path class="c" d="M128.37,97.58h-9.3a3,3,0,0,0,3,2.35,4.44,4.44,0,0,0,3.14-1.36l2.3,2.3a7.52,7.52,0,0,1-5.84,2.37c-4.38,0-7.07-2.7-7.07-6.78s2.79-6.9,7-6.9C126.3,89.57,128.67,92.71,128.37,97.58Zm-4.25-2.35a2.39,2.39,0,0,0-2.47-2.57A2.77,2.77,0,0,0,119,95.23Z"/>
      <path class="c" d="M135.18,84.74V103.1h-4.4V84.74Z"/>
      <path class="c" d="M143.19,84.74V103.1h-4.4V84.74Z"/>
      <path class="c" d="M160.21,96.39c0,4.13-2.92,6.85-7.32,6.85s-7.3-2.72-7.3-6.85,2.89-6.83,7.3-6.83S160.21,92.29,160.21,96.39Zm-10.19,0c0,2,1.16,3.34,2.87,3.34s2.9-1.34,2.9-3.34-1.16-3.31-2.9-3.31S150,94.46,150,96.44Z"/>
      <path class="c" d="M166.18,101.14a2.12,2.12,0,1,1-4.23,0,2.12,2.12,0,1,1,4.23,0Zm0-15.29v4.43l-.77,6.8h-2.65l-.77-6.8V85.85Z"/>
    </g>
    <g>
      <path class="c" d="M106.52,159.78a.88.88,0,0,0,.83-.57l.14-.35-3.32-1-.1.33c-1.89,6.13-4.79,12-7.57,15.31l-.19.23.21.22a16,16,0,0,1,1.32,1.66l.26.4.3-.37a36.3,36.3,0,0,0,2.68-3.89v16.31h2.81V167.86a.85.85,0,0,0,.61-.56l.12-.34-.88-.24A70.41,70.41,0,0,0,106.52,159.78Z"/>
      <path class="c" d="M122.8,171.17l-.07.34,2.46.48.09-.3a53.33,53.33,0,0,0,1.44-7.07v-.33l-15,0c.48-1.4.92-2.92,1.31-4.51a.8.8,0,0,0,.75-.56l.1-.34-3.32-.88-.08.35c-1.15,5.29-3.08,10.06-5.16,12.76l-.24.31.35.2a9.07,9.07,0,0,1,1.54,1.24l.28.28.24-.31a27.25,27.25,0,0,0,3.22-5.85h4.53v18.16c0,.12,0,.17,0,.18a.56.56,0,0,1-.18,0h-1.27c-.6,0-1.35,0-2.14,0l-.61,0,.29.53a8.36,8.36,0,0,1,.76,2.09l.06.28h.28c4.41,0,5.6-.38,5.6-3V166.93h5.56C123.35,168.29,123.05,170,122.8,171.17Z"/>
      <path class="c" d="M113.31,172.43l.16-.36-3.29-.89-.08.34c-1,4.32-2.73,8.21-4.5,10.42l-.27.33.38.19a9.92,9.92,0,0,1,1.61,1l.27.23.22-.28A30.73,30.73,0,0,0,112.57,173,.91.91,0,0,0,113.31,172.43Z"/>
      <path class="c" d="M122.32,171.2l-.14-.24-2.52.9.2.36a43.6,43.6,0,0,1,4.3,10.83l.08.4,2.68-1-.06-.29A42.05,42.05,0,0,0,122.32,171.2Z"/>
      <path class="c" d="M150.82,172.11v-3.42a41.12,41.12,0,0,0,6.66-7.19,1.11,1.11,0,0,0,.58-.43l.17-.29-2.1-1.31-.51.16H141.52v2.68h11.86a30.89,30.89,0,0,1-4.12,4.47L148,166.7v5.41h-7.76v2.75H148V185c0,.32,0,.32-1.05.32-.77,0-1.92,0-3.2-.05l-1.17,0,.25.51a10.77,10.77,0,0,1,.76,2l.06.27H145c2.91,0,4.4-.18,5.17-.95a2.89,2.89,0,0,0,.65-2.16V174.85h7.64v-2.75Z"/>
      <path class="c" d="M138,179.19a41.9,41.9,0,0,0,3-13.44l.33-.76-1.68-.44-.42.11h-4.41c.48-2.16.84-3.87,1.13-5.34a.76.76,0,0,0,.68-.63l.05-.35-3.27-.4-.06.32c-.46,2.43-.86,4.48-1.27,6.41H128.4v2.68h3.08c-1,4.22-1.87,7.92-2.6,10.46l-.08.27,2.43,1.28.37-1.37c1,.65,2,1.32,3,2a14.55,14.55,0,0,1-5.67,5.78l-.41.22.33.33a8.47,8.47,0,0,1,1.27,1.66l.17.32.31-.19a17.51,17.51,0,0,0,6.19-6.39,21.28,21.28,0,0,1,3,3l.28.36,1.73-2.32-.16-.21A21.9,21.9,0,0,0,138,179.19Zm.11-11.84a37.49,37.49,0,0,1-2.4,10.17c-1.13-.75-2.32-1.51-3.47-2.16.7-2.73,1.36-5.49,1.94-8Z"/>
    </g>
    <circle class="e" cx="81.97" cy="94.86" r="5.3"/>
    <circle class="e" cx="81.97" cy="133.36" r="5.3"/>
    <circle class="e" cx="81.97" cy="171.86" r="5.3"/>
  </g>
</svg>
