<svg id="Layer_1" data-name="Layer 1" xmlns="http://www.w3.org/2000/svg" viewBox="0 0 736.04 159.9"><defs><style>.bg-color{fill:#000;}</style></defs><title>Logo Consejo Sano</title><path class="bg-color" d="M225.31,263.66l-9.24,8.81q-9.43-10-21.22-10a23.26,23.26,0,0,0-23.58,23.58,24.8,24.8,0,0,0,3,12.33,21.62,21.62,0,0,0,8.54,8.46,24.78,24.78,0,0,0,12.26,3.07,25.27,25.27,0,0,0,10.52-2.15q4.76-2.15,10.47-7.82l9,9.35q-7.69,7.51-14.54,10.41a39.69,39.69,0,0,1-15.62,2.9q-16.19,0-26.5-10.27T158,286.06a36,36,0,0,1,4.7-18.46,34.92,34.92,0,0,1,13.45-13,37.94,37.94,0,0,1,18.86-4.91,40,40,0,0,1,30.26,13.95Z" transform="translate(-34.15 -225.31)"/><path class="bg-color" d="M259.58,268.22a27.22,27.22,0,0,1,13.66,3.63,26.65,26.65,0,0,1,13.57,23.32,27,27,0,0,1-3.61,13.59,26,26,0,0,1-9.84,9.89,27.18,27.18,0,0,1-13.74,3.56,25.62,25.62,0,0,1-18.86-7.86,27.22,27.22,0,0,1,1-39.15A25.79,25.79,0,0,1,259.58,268.22Zm.21,12.13a13.26,13.26,0,0,0-10,4.18,14.83,14.83,0,0,0-4,10.69,15.11,15.11,0,0,0,3.95,10.86,13.2,13.2,0,0,0,10,4.15,13.35,13.35,0,0,0,10.07-4.2,16.56,16.56,0,0,0,.07-21.55A13.35,13.35,0,0,0,259.79,280.35Z" transform="translate(-34.15 -225.31)"/><path class="bg-color" d="M297.34,269.54h12.88v5.26a30.9,30.9,0,0,1,7.94-5.14,19.19,19.19,0,0,1,7.28-1.44,17.63,17.63,0,0,1,13,5.33q4.48,4.53,4.48,13.4v33.94H330.14V298.4q0-9.19-.82-12.21a8.36,8.36,0,0,0-2.87-4.6,8,8,0,0,0-5.06-1.58,9.49,9.49,0,0,0-6.71,2.62,14,14,0,0,0-3.89,7.24q-.56,2.4-.57,10.42v20.6H297.34Z" transform="translate(-34.15 -225.31)"/><path class="bg-color" d="M386.78,276.71l-8,8q-4.86-4.81-8.83-4.81a5.55,5.55,0,0,0-3.4.92,2.76,2.76,0,0,0-1.23,2.29,2.82,2.82,0,0,0,.78,1.91,14.53,14.53,0,0,0,3.85,2.38l4.72,2.36q7.46,3.68,10.24,7.5a15.64,15.64,0,0,1-2.24,20.39q-5,4.58-13.48,4.58a21.42,21.42,0,0,1-17.94-8.78l7.93-8.64a18.28,18.28,0,0,0,5.31,4.27,11.75,11.75,0,0,0,5.4,1.63,6.45,6.45,0,0,0,4.11-1.23,3.56,3.56,0,0,0,1.56-2.83q0-3-5.62-5.81l-4.34-2.17q-12.46-6.28-12.46-15.72a13.64,13.64,0,0,1,4.7-10.41,17.05,17.05,0,0,1,12-4.32,20.84,20.84,0,0,1,16.9,8.5Z" transform="translate(-34.15 -225.31)"/><path class="bg-color" d="M449.32,298.94H407.93a13.77,13.77,0,0,0,4.79,8.71,15,15,0,0,0,9.94,3.23,17.17,17.17,0,0,0,12.41-5.05l10.86,5.1a25.63,25.63,0,0,1-9.72,8.52,30.41,30.41,0,0,1-13.45,2.76q-12.08,0-19.68-7.62a25.94,25.94,0,0,1-7.6-19.09q0-11.75,7.58-19.52a25.44,25.44,0,0,1,19-7.76q12.13,0,19.73,7.76t7.6,20.51ZM436.43,288.8a12.93,12.93,0,0,0-5-7,14.6,14.6,0,0,0-8.72-2.69,15.43,15.43,0,0,0-9.46,3q-2.55,1.89-4.73,6.66Z" transform="translate(-34.15 -225.31)"/><path class="bg-color" d="M459.37,269.54h12.89v53.05q0,7.32-1.44,10.93a11.2,11.2,0,0,1-4.56,5.55,13.94,13.94,0,0,1-7.5,1.94,31.42,31.42,0,0,1-9.63-1.94V328.92a12.55,12.55,0,0,0,5.33,1.46,4.54,4.54,0,0,0,3.68-1.46q1.23-1.46,1.23-5.38Zm6.42-21.15a8,8,0,0,1,5.88,2.45,8.42,8.42,0,0,1,0,11.81,7.8,7.8,0,0,1-5.76,2.45,7.9,7.9,0,0,1-5.88-2.49,8.32,8.32,0,0,1-2.43-6,8.17,8.17,0,0,1,8.17-8.19Z" transform="translate(-34.15 -225.31)"/><path class="bg-color" d="M509,268.22a27.22,27.22,0,0,1,13.66,3.63,26.65,26.65,0,0,1,13.57,23.32,27,27,0,0,1-3.61,13.59,26,26,0,0,1-9.84,9.89A27.18,27.18,0,0,1,509,322.21a25.62,25.62,0,0,1-18.86-7.86,27.22,27.22,0,0,1,1-39.15A25.79,25.79,0,0,1,509,268.22Zm.21,12.13a13.26,13.26,0,0,0-10,4.18,14.83,14.83,0,0,0-4,10.69,15.11,15.11,0,0,0,3.95,10.86,13.2,13.2,0,0,0,10,4.15,13.35,13.35,0,0,0,10.07-4.2,16.56,16.56,0,0,0,.07-21.55A13.35,13.35,0,0,0,509.19,280.35Z" transform="translate(-34.15 -225.31)"/><path class="bg-color" d="M584.6,260.9l-9.79,8.64q-5.16-7.17-10.5-7.17a6.38,6.38,0,0,0-4.26,1.39,4.06,4.06,0,0,0-1.66,3.14,5.37,5.37,0,0,0,1.18,3.3q1.61,2.08,9.69,8.92,7.56,6.33,9.17,8a27.67,27.67,0,0,1,5.7,7.76,19.4,19.4,0,0,1,1.68,8.09,18.56,18.56,0,0,1-5.91,14.11q-5.91,5.57-15.4,5.57A22.91,22.91,0,0,1,551.59,319q-5.51-3.63-9.43-11.42l11.11-6.7q5,9.2,11.53,9.2a8.49,8.49,0,0,0,5.72-2,5.9,5.9,0,0,0,2.32-4.58,7.9,7.9,0,0,0-1.75-4.72q-1.75-2.36-7.71-7.22Q552,282.33,548.73,277.3a18.13,18.13,0,0,1-3.31-10,16.4,16.4,0,0,1,5.51-12.39,19.1,19.1,0,0,1,13.59-5.17,21.43,21.43,0,0,1,9.9,2.41Q579.11,254.53,584.6,260.9Z" transform="translate(-34.15 -225.31)"/><path class="bg-color" d="M634.91,269.54H647.8v51.35H634.91v-5.43a25.26,25.26,0,0,1-7.57,5.17,21.17,21.17,0,0,1-8.23,1.58,22.86,22.86,0,0,1-17.21-7.72q-7.26-7.72-7.26-19.19,0-11.9,7-19.49a22.38,22.38,0,0,1,17.07-7.6,21.7,21.7,0,0,1,8.67,1.75,23.69,23.69,0,0,1,7.5,5.24Zm-13.55,10.57a13,13,0,0,0-9.93,4.22,15.22,15.22,0,0,0-4,10.83,15.38,15.38,0,0,0,4,11,13,13,0,0,0,9.9,4.3,13.28,13.28,0,0,0,10.07-4.22q4-4.22,4-11.07a15,15,0,0,0-4-10.86A13.44,13.44,0,0,0,621.37,280.11Z" transform="translate(-34.15 -225.31)"/><path class="bg-color" d="M660.83,269.54h12.88v5.26a30.9,30.9,0,0,1,7.94-5.14,19.19,19.19,0,0,1,7.28-1.44,17.63,17.63,0,0,1,13,5.33q4.48,4.53,4.48,13.4v33.94H693.63V298.4q0-9.19-.82-12.21a8.36,8.36,0,0,0-2.87-4.6,8,8,0,0,0-5.06-1.58,9.49,9.49,0,0,0-6.71,2.62,14,14,0,0,0-3.89,7.24q-.56,2.4-.57,10.42v20.6H660.83Z" transform="translate(-34.15 -225.31)"/><path class="bg-color" d="M743,268.22a27.22,27.22,0,0,1,13.66,3.63,26.65,26.65,0,0,1,13.57,23.32,27,27,0,0,1-3.61,13.59,26,26,0,0,1-9.84,9.89A27.18,27.18,0,0,1,743,322.21a25.62,25.62,0,0,1-18.86-7.86,27.22,27.22,0,0,1,1-39.15A25.79,25.79,0,0,1,743,268.22Zm.21,12.13a13.26,13.26,0,0,0-10,4.18,14.83,14.83,0,0,0-4,10.69,15.11,15.11,0,0,0,3.95,10.86,13.2,13.2,0,0,0,10,4.15,13.35,13.35,0,0,0,10.07-4.2,16.56,16.56,0,0,0,.07-21.55A13.35,13.35,0,0,0,743.17,280.35Z" transform="translate(-34.15 -225.31)"/><ellipse class="bg-color" cx="161.02" cy="61.38" rx="7.74" ry="7.53"/><path class="bg-color" d="M178.55,385.21H98.94a3.34,3.34,0,0,1-1.1-.18c-.55-.19-13.56-4.85-16.2-17.32a3.39,3.39,0,0,1-.07-.69V338.79a3.34,3.34,0,1,1,6.68,0v27.86c1.76,7.42,9.34,11.05,11.32,11.89h79c11.82,0,13.23-14,13.34-15.35v-74.9a3.34,3.34,0,1,1,6.67,0v75c0,.07,0,.14,0,.2C198.11,371,193.33,385.21,178.55,385.21Z" transform="translate(-34.15 -225.31)"/><path class="bg-color" d="M56,268.9v20.17a12.74,12.74,0,0,1-8.62-5.42H40.87S36.69,307,58.25,323.7l3.62-3.34s22.67,19.05,48.4.42l3.48,3.62s21-13.63,17.66-40.75h-5.7s-3.06,4.73-8.21,5.28V269s6,0,7.79,5.84h11.13s8.62,32.54-18.08,53.54l1.25,1.67s-30.74,27.26-67.87,0l2.09-1.81S28.21,311.3,35.72,275H47.13S49.63,268.9,56,268.9Z" transform="translate(-34.15 -225.31)"/><path class="bg-color" d="M85.81,342.42c-11.72,0-23.23-4.09-34.22-12.16l-.21-.15,2.08-1.8a47,47,0,0,1-11.69-12.94c-5-8-10.14-21.59-6.25-40.41l0-.17H47c.42-.89,3.09-6.1,9-6.1h.21V289.3l-.23,0a13.08,13.08,0,0,1-8.71-5.42H41a43.82,43.82,0,0,0,17.19,39.57l3.62-3.34.14.12a42,42,0,0,0,24.6,8.54c8.17,0,16.09-2.74,23.54-8.14l.15-.11,3.48,3.62c1.83-1.27,20.47-14.89,17.45-40.27h-5.41c-.48.68-3.52,4.77-8.29,5.28l-.23,0V268.83h.21c.06,0,6.05.07,7.94,5.84h11.13l0,.15a57.68,57.68,0,0,1,1,19,50.35,50.35,0,0,1-19,34.66l1.24,1.66-.14.13c-.14.12-14,12.17-33.91,12.17ZM52,330.08C62.9,338,74.26,342,85.81,342h0c18.7,0,32-10.66,33.48-11.94L118,328.39l.16-.13a49.94,49.94,0,0,0,19-34.49,58,58,0,0,0-.93-18.68H125.13l0-.15a8.18,8.18,0,0,0-7.38-5.68v19.43c4.85-.65,7.79-5.12,7.82-5.16l.06-.1h6l0,.18c3.32,26.94-17.54,40.81-17.76,40.95l-.14.09-3.47-3.61c-7.48,5.38-15.44,8.11-23.64,8.11a42.45,42.45,0,0,1-24.72-8.53L58.26,324l-.14-.11a44.19,44.19,0,0,1-17.46-40.25l0-.17h6.82l.06.09a12.61,12.61,0,0,0,8.24,5.3V269.11c-6,.13-8.47,5.91-8.5,6l-.05.13H35.89c-3.8,18.59,1.28,32,6.22,39.92a45.61,45.61,0,0,0,11.8,13l.23.15Z" transform="translate(-34.15 -225.31)"/><path class="bg-color" d="M106.64,225.52H67a8.64,8.64,0,0,0-8.6,8.68v72.59a8.64,8.64,0,0,0,8.6,8.68h39.64a8.64,8.64,0,0,0,8.6-8.68V234.19A8.64,8.64,0,0,0,106.64,225.52Zm-26,6.74H94.95a1.66,1.66,0,0,1,0,3.32H80.67a1.66,1.66,0,0,1,0-3.32Zm6.61,79.8A4.78,4.78,0,1,1,92,307.27,4.76,4.76,0,0,1,87.28,312.05Zm-21.77-11.3V240.88h42.56v59.87Z" transform="translate(-34.15 -225.31)"/><path class="bg-color" d="M106.64,315.67H67a8.86,8.86,0,0,1-8.81-8.89V234.19A8.86,8.86,0,0,1,67,225.31h39.64a8.86,8.86,0,0,1,8.81,8.89v72.59A8.86,8.86,0,0,1,106.64,315.67ZM67,225.72a8.44,8.44,0,0,0-8.39,8.47v72.59A8.44,8.44,0,0,0,67,315.25h39.64a8.44,8.44,0,0,0,8.39-8.47V234.19a8.44,8.44,0,0,0-8.39-8.47Zm20.27,86.54a5,5,0,1,1,4.95-5A5,5,0,0,1,87.28,312.26Zm0-9.57a4.57,4.57,0,1,0,4.53,4.57A4.56,4.56,0,0,0,87.28,302.7Zm21-1.73h-43V240.67h43Zm-42.56-.42h42.14V241.09H65.72Zm29.23-64.76H80.67a1.87,1.87,0,0,1,0-3.73H94.95a1.87,1.87,0,0,1,0,3.73Zm-14.28-3.32a1.45,1.45,0,0,0,0,2.9H94.95a1.45,1.45,0,0,0,0-2.9Z" transform="translate(-34.15 -225.31)"/></svg>