<svg id="Layer_1" data-name="Layer 1" xmlns="http://www.w3.org/2000/svg" viewBox="0 0 230 230"><defs><style>.cls-1,.cls-7{fill:#39bbcf;}.cls-1,.cls-4,.cls-6{stroke:#3e4d6e;stroke-miterlimit:10;}.cls-1,.cls-4,.cls-6,.cls-8{stroke-width:5px;}.cls-2,.cls-4{fill:#fafafa;}.cls-3{fill:#3e4d6e;}.cls-5{fill:#ea5181;}.cls-6,.cls-8{fill:none;}.cls-8{stroke:#ea5181;stroke-linecap:round;stroke-linejoin:round;}</style></defs><title>MedicalHeart</title><g id="Group"><path class="cls-1" d="M198,37.93h-25V46h-59.8V37.93H89a6.58,6.58,0,0,0-6.58,6.54v132A6.58,6.58,0,0,0,89,183H198a6.58,6.58,0,0,0,6.58-6.54v-132A6.58,6.58,0,0,0,198,37.93Z"/><rect class="cls-2" x="99.61" y="53.72" width="87.83" height="115.68"/><path class="cls-3" d="M185.5,55.65V167.48h-84V55.65h84m3.87-3.85H97.67V171.33h91.7Z"/><path class="cls-4" d="M166.83,26.58H156.24a12.79,12.79,0,0,0,.08-1.38,12.8,12.8,0,0,0-25.58.71q0,.34,0,.67H120.23a6.58,6.58,0,0,0-6.58,6.54V46h59.78V33.13A6.58,6.58,0,0,0,166.83,26.58Z"/><ellipse class="cls-3" cx="143.52" cy="25.21" rx="4.84" ry="4.81"/><path class="cls-3" d="M127.52,98.84V105h6.12V98.84h4v15.08h-4v-5.79h-6.12v5.79h-4V98.84Z"/><path class="cls-3" d="M152.4,108.09c0,3.59-2.55,6-6.41,6s-6.39-2.37-6.39-6,2.53-5.94,6.39-5.94S152.4,104.52,152.4,108.09Zm-8.95,0c0,1.74,1,2.9,2.51,2.9a2.6,2.6,0,0,0,2.53-2.9c0-1.74-1-2.89-2.53-2.89S143.45,106.41,143.45,108.14Z"/><path class="cls-3" d="M158.32,98v16h-3.87V98Z"/><path class="cls-3" d="M171.79,106.35v7.57H168v-1.32a4.24,4.24,0,0,1-3.53,1.49c-2.51,0-4-1.54-4-3.64S162,107,165,106.92h3v-.13c0-1.1-.77-1.75-2.23-1.75a8.62,8.62,0,0,0-3.51.92l-1.06-2.59a13,13,0,0,1,5.42-1.27C169.89,102.14,171.77,103.67,171.79,106.35ZM168,110v-1h-2.32c-1.08,0-1.63.38-1.63,1.21s.59,1.32,1.55,1.32A2.32,2.32,0,0,0,168,110Z"/><path class="cls-3" d="M177.64,112.22a1.85,1.85,0,0,1-3.7,0h0a1.85,1.85,0,0,1,3.7,0Zm0-13.3v3.85l-.67,5.92h-2.32l-.67-5.92V98.93Z"/><path class="cls-3" d="M127.07,71.17v5.44h5.42V71.17H136V84.51h-3.51V79.39h-5.42v5.12h-3.51V71.17Z"/><path class="cls-3" d="M148.38,80.27h-7.2a2.32,2.32,0,0,0,2.32,1.81,3.45,3.45,0,0,0,2.43-1l1.78,1.77a5.84,5.84,0,0,1-4.52,1.82c-3.39,0-5.47-2.08-5.47-5.22a5.09,5.09,0,0,1,5.42-5.31C146.78,74.1,148.61,76.52,148.38,80.27Zm-3.29-1.81a1.84,1.84,0,0,0-1.7-2h-.21a2.14,2.14,0,0,0-2.05,2Z"/><path class="cls-3" d="M153.65,70.38V84.51h-3.41V70.38Z"/><path class="cls-3" d="M159.85,70.38V84.51h-3.41V70.38Z"/><path class="cls-3" d="M173,79.35c0,3.18-2.26,5.27-5.67,5.27s-5.65-2.09-5.65-5.27,2.24-5.26,5.65-5.26S173,76.19,173,79.35Zm-7.89,0a2.25,2.25,0,1,0,2.22-2.55,2.29,2.29,0,0,0-2.22,2.55Z"/><path class="cls-3" d="M177.64,83a1.63,1.63,0,1,1,0-.22A1.63,1.63,0,0,1,177.64,83Zm0-11.77v3.41l-.6,5.23H175l-.6-5.23V71.24Z"/><path class="cls-3" d="M131.46,128.13a.68.68,0,0,0,.64-.44l.11-.27-2.57-.77-.08.25c-1.46,4.72-3.71,9.23-5.86,11.78l-.15.18.16.17a12.32,12.32,0,0,1,1,1.28l.2.31.23-.28a27.93,27.93,0,0,0,2.07-3v12.55h2.18V134.35a.66.66,0,0,0,.47-.43l.09-.26-.68-.18A54,54,0,0,0,131.46,128.13Z"/><path class="cls-3" d="M144.07,136.89l-.05.26,1.9.37.07-.23a40.83,40.83,0,0,0,1.11-5.44v-.25H135.49c.37-1.08.71-2.25,1-3.47a.62.62,0,0,0,.58-.43l.08-.26-2.57-.68-.06.27c-.89,4.07-2.38,7.74-4,9.82l-.19.24.27.15a7,7,0,0,1,1.19,1l.22.22.19-.24a20.93,20.93,0,0,0,2.49-4.5h3.51v14.11H135l.22.41a6.41,6.41,0,0,1,.59,1.61l0,.22H136c3.41,0,4.33-.29,4.33-2.31V133.63h4.3C144.49,134.68,144.26,136,144.07,136.89Z"/><path class="cls-3" d="M136.72,137.86l.12-.28-2.55-.68-.06.26a21.33,21.33,0,0,1-3.48,8l-.21.25.29.15a7.69,7.69,0,0,1,1.25.77l.21.18.17-.22a23.58,23.58,0,0,0,3.68-8A.7.7,0,0,0,136.72,137.86Z"/><path class="cls-3" d="M143.69,136.92l-.11-.18-2,.69.15.28a33.44,33.44,0,0,1,3.33,8.33l.06.31,2.07-.77,0-.22A32.25,32.25,0,0,0,143.69,136.92Z"/><path class="cls-3" d="M165.76,137.62V135a31.72,31.72,0,0,0,5.16-5.53.86.86,0,0,0,.45-.33l.13-.22-1.63-1-.39.12H158.56v2.06h9.18a23.82,23.82,0,0,1-3.19,3.44l-1-.06v4.16h-6v2.12h6v7.8c0,.25,0,.25-.81.25-.6,0-1.49,0-2.48,0h-.91l.19.39a8.26,8.26,0,0,1,.59,1.54l0,.21h1c2.25,0,3.41-.14,4-.73a2.22,2.22,0,0,0,.5-1.66v-7.76h5.91v-2.12Z"/><path class="cls-3" d="M155.83,143.07a32.08,32.08,0,0,0,2.32-10.34l.26-.58-1.3-.34-.33.08h-3.41c.37-1.66.65-3,.87-4.11a.59.59,0,0,0,.53-.48l0-.27-2.53-.31,0,.25c-.36,1.87-.67,3.45-1,4.93H148.4V134h2.38c-.77,3.25-1.45,6.09-2,8l-.06.21,1.88,1,.29-1.05c.77.5,1.55,1,2.32,1.54a11.23,11.23,0,0,1-4.39,4.45l-.32.17.26.25a6.52,6.52,0,0,1,1,1.28l.13.25.24-.15A13.51,13.51,0,0,0,154.9,145a16.42,16.42,0,0,1,2.32,2.31l.22.28,1.34-1.79-.12-.16A16.91,16.91,0,0,0,155.83,143.07Zm.09-9.11a28.71,28.71,0,0,1-1.86,7.83c-.87-.58-1.8-1.16-2.69-1.66.54-2.1,1.05-4.22,1.5-6.16Z"/><ellipse class="cls-5" cx="112.46" cy="78.17" rx="4.1" ry="4.08"/><ellipse class="cls-5" cx="112.46" cy="107.8" rx="4.1" ry="4.08"/><ellipse class="cls-5" cx="112.46" cy="137.43" rx="4.1" ry="4.08"/></g><g id="Group-2" data-name="Group"><path class="cls-6" d="M30.31,112.3H14.81v9.14c0,18.33,9.25,33.18,27.5,33.18h0c18.25,0,27.5-14.86,27.5-33.18V112.3H56.31"/><rect class="cls-7" x="22.31" y="107.8" width="13" height="9" rx="4.29" ry="4.29"/><path class="cls-6" d="M88.31,205.3H58.37c-16.55,0-16.55-14.63-16.55-14.63V154.8"/><rect class="cls-7" x="51.31" y="107.8" width="13" height="9" rx="4.29" ry="4.29"/><polyline class="cls-8" points="82.81 205.3 99.27 205.3 111.9 160.53 126.22 217.16 137.13 188.84 146 206.3 184.81 206.3"/></g><path class="cls-5 heart" d="M210.89,195.38a6.74,6.74,0,0,0-5.38,2.67,6.78,6.78,0,1,0-10.23,8.87l9.58,9.64.69.7.69-.7,9.35-9.46a6.81,6.81,0,0,0-4.7-11.72Z"/></svg>