<svg xmlns="http://www.w3.org/2000/svg" viewBox="0 0 370.41 307.33">
  <defs>
    <style>
      .a {
        fill: #586b8c;
      }

      .a, .b {
        stroke: #3d4c6d;
        stroke-miterlimit: 10;
      }

      .b, .d {
        fill: #3d4c6d;
      }

      .c {
        fill: #f9f9f9;
      }

      .e {
        fill: #73be88;
      }

      .f {
        fill: #04c7d7;
      }

      .g {
        fill: #fcd1a2;
      }

      .h {
        fill: #fc4f80;
      }

      .i {
        fill: #f9dfc5;
      }
    </style>
  </defs>
  <title>Our services_icons</title>
  <path class="a" d="M340.88,208.11v-171c0-5.68-5.46-10.32-12.14-10.32H83.84c-6.68,0-12.14,4.65-12.14,10.32v171c0,5.68,5.46,10.32,12.14,10.32h244.9C335.41,218.43,340.88,213.78,340.88,208.11Z"/>
  <path class="b" d="M328.74,220.93H83.84c-8.07,0-14.64-5.75-14.64-12.82v-171c0-7.07,6.57-12.82,14.64-12.82h244.9c8.07,0,14.64,5.75,14.64,12.82v171C343.38,215.18,336.81,220.93,328.74,220.93ZM83.84,29.3c-5.32,0-9.64,3.51-9.64,7.82v171c0,4.31,4.32,7.82,9.64,7.82h244.9c5.32,0,9.64-3.51,9.64-7.82v-171c0-4.31-4.32-7.82-9.64-7.82Z"/>
  <path class="c" d="M324.64,197.7V47.53c0-5-4.65-9.07-10.33-9.07H106c-5.68,0-10.33,4.08-10.33,9.07V197.7c0,5,4.65,9.07,10.33,9.07H314.31C320,206.76,324.64,202.68,324.64,197.7Z"/>
  <rect class="d" x="128.8" y="134.04" width="9.85" height="53.74"/>
  <rect class="d" x="145.81" y="117.44" width="9.85" height="70.34"/>
  <rect class="d" x="162.83" y="138.67" width="9.85" height="49.11"/>
  <rect class="d" x="179.85" y="151.55" width="9.85" height="36.23"/>
  <rect class="d" x="196.86" y="160.02" width="9.85" height="27.76"/>
  <rect class="d" x="213.88" y="160.02" width="9.85" height="27.76"/>
  <rect class="d" x="230.89" y="146.25" width="9.85" height="41.53"/>
  <rect class="d" x="247.91" y="160.02" width="9.85" height="27.76"/>
  <rect class="d" x="264.93" y="152.61" width="9.85" height="35.17"/>
  <rect class="d" x="281.94" y="137.11" width="9.85" height="50.67"/>
  <rect class="d" x="298.96" y="120.66" width="9.85" height="67.12"/>
  <polygon class="e" points="110.03 145.88 108.46 144.65 150.55 100.01 215.12 139.01 234 119.97 254.67 139 306.24 96.7 307.51 98.25 254.59 141.65 234.06 122.74 215.32 141.65 150.92 102.78 110.03 145.88"/>
  <circle class="f" cx="108.84" cy="145.76" r="5.58"/>
  <circle class="f" cx="150.74" cy="102.4" r="5.58"/>
  <circle class="f" cx="215.16" cy="140.18" r="5.58"/>
  <circle class="f" cx="234.03" cy="120.66" r="5.58"/>
  <circle class="f" cx="254.63" cy="140.18" r="5.58"/>
  <circle class="f" cx="306.87" cy="97.23" r="5.58"/>
  <rect class="d" x="111.88" y="160.02" width="9.85" height="27.76"/>
  <circle class="d" cx="85.07" cy="122.61" r="5.43"/>
  <rect class="g" x="114.53" y="82.67" width="59.75" height="4.15" rx="0.64" ry="0.64"/>
  <path class="g" d="M253.68,272.63c.26,1.26,1.18,21.69,2.33,34.7h44.06c.54-12.86.7-32.89,1.14-33.85L313.94,246s11-21.21,7-26.53-10.64-2-13.09-4.5.82-9.82-4.09-12.68-6.14,1.64-10.64-1.23-.41-12.28-8.32-14.53-9.68,5.93-13,4.71,10.23-56.86-2.46-56.86c-11,0-14.73,56-15.14,59.38s-10.23,22-11.74,26.53,5.6,25.72,5.6,25.72Z"/>
  <path class="g" d="M25.61,307.33H57.44L99.27,221l0-.56H81.64c-6.62,0-12.38-5.93-12.38-11.61V153.94c-12.55,18.76-25.77,39.1-28.85,46-6.2,13.88,14.41,38,13.13,52.56C53.31,255.21,29.74,300,25.61,307.33Z"/>
  <path class="g" d="M68.5,307.33c11.38-16.19,38.37-61.23,38.37-70.41,0-14.13,7.69-44.07,7.69-44.07s5.14-17.71-3.36-19.59C104.37,171.74,98,187.92,98,187.92L84.22,220.43l-43,86.91Z"/>
  <g>
    <g>
      <path class="h" d="M269.25,64.67h2.69l4.65-16.49a.9.9,0,0,1,.86-.65h0a.9.9,0,0,1,.86.68l4.79,19L286.28,59a.9.9,0,0,1,.78-.57.92.92,0,0,1,.84.48l3.15,6h10.55l.4-.4a11.13,11.13,0,1,0-16.49-14.85,11.12,11.12,0,1,0-16.79,14.55Z"/>
      <path class="h" d="M290.52,66.64a.9.9,0,0,1-.79-.48l-2.48-4.72-3.47,9a.9.9,0,0,1-.84.57h-.05a.9.9,0,0,1-.81-.67L277.41,51.9l-3.93,13.92a.9.9,0,0,1-.86.65H271L284.39,80l1.13,1.14L286.65,80l13.19-13.32Z"/>
    </g>
    <g>
      <rect class="e" x="121.6" y="43.39" width="6.19" height="20.34" rx="1" ry="1"/>
      <rect class="e" x="121.6" y="43.39" width="6.19" height="20.34" rx="1" ry="1" transform="translate(178.25 -71.14) rotate(90)"/>
    </g>
    <rect class="g" x="114.96" y="68.96" width="107.46" height="4.15" rx="0.86" ry="0.86"/>
  </g>
  <path class="i" d="M111.31,176.07c-2.7-.9-7,3.83-8,6.83s8.33,6.33,9.83,4S114.81,177.24,111.31,176.07Z"/>
  <path class="i" d="M269.58,136.45c-4.47-.44-6.69,7.5-6.25,10.25.23,1.47,8.29,3.85,9.8.88S273.25,136.8,269.58,136.45Z"/>
</svg>
